#N canvas -8 -8 1920 1007 12;
#X declare -lib Gem;
#X obj 19 163 cnv 15 250 150 empty empty pythonValues_UDP 20 12 0 14
-233017 -4160 0;
#X obj 42 248 route 0 1 2;
#X obj 42 280 s r;
#X obj 84 281 s g;
#X obj 129 281 s b;
#X obj 38 223 netreceive 3000 1;
#X obj 22 509 cnv 15 225 350 empty empty cubeDebug 20 12 0 14 -233017
-66577 0;
#X obj 35 543 bng 15 250 50 0 empty empty empty 17 7 0 10 -262144 -1
-1;
#X obj 152 589 s r;
#X obj 151 609 s g;
#X obj 151 629 s b;
#X obj 155 544 bng 15 250 50 0 empty empty empty 17 7 0 10 -262144
-1 -1;
#X msg 155 567 1;
#X obj 18 8 cnv 15 450 150 empty empty renderWindow 20 12 0 14 -228856
-4160 0;
#X msg 45 101 destroy \, 0;
#X text 171 543 white;
#X text 52 542 black;
#X obj 32 588 s rD;
#X obj 31 608 s gD;
#X obj 31 628 s bD;
#X msg 35 566 0.1;
#X obj 33 126 gemwin 60;
#N canvas 604 472 450 300 Light 0;
#X obj 99 80 tgl 15 0 empty empty empty 17 7 0 10 -262144 -1 -1 1 1
;
#X msg 143 112 lighting \$1;
#X obj 277 55 gemhead 1;
#X obj 261 102 tgl 15 0 empty empty empty 17 7 0 10 -262144 -1 -1 1
1;
#X msg 370 103 debug \$1;
#X obj 353 104 tgl 15 0 empty empty empty 17 7 0 10 -262144 -1 -1 0
1;
#X obj 281 123 light;
#X msg 374 128 0 \, 0 \, 1;
#X obj 280 100 rotateXYZ;
#X obj 277 79 translateXYZ -2 0 2;
#X obj 164 33 inlet;
#X obj 171 173 outlet;
#X connect 0 0 1 0;
#X connect 1 0 11 0;
#X connect 2 0 9 0;
#X connect 3 0 6 0;
#X connect 4 0 6 0;
#X connect 5 0 4 0;
#X connect 6 0 11 0;
#X connect 7 0 6 1;
#X connect 8 0 6 0;
#X connect 9 0 8 0;
#X connect 10 0 0 0;
#X connect 10 0 3 0;
#X restore 206 105 pd Light;
#X obj 197 17 loadbang;
#X obj 229 43 s loadbang;
#X obj 73 731 tgl 15 0 empty empty empty 17 7 0 10 -262144 -1 -1 1
1;
#X obj 68 772 float;
#X obj 126 772 + 1;
#X obj 68 750 metro 50;
#X obj 68 819 s rot;
#X text 77 669 cubeRot;
#X obj 69 704 loadbang;
#X obj 299 11 declare -lib Gem;
#X obj 487 14 cnv 15 600 600 empty empty colourProcessing 20 12 0 14
-233017 -258113 0;
#X floatatom 629 81 5 0 0 0 - - -;
#X floatatom 683 81 5 0 0 0 - - -;
#X floatatom 740 83 5 0 0 0 - - -;
#X obj 527 84 gemhead;
#X obj 527 158 rotateXYZ 0 0 0;
#X obj 566 136 r rot;
#X obj 536 400 r r;
#X obj 565 399 r g;
#X obj 598 400 r b;
#X obj 629 57 r rD;
#X obj 683 58 r gD;
#X obj 740 59 r bD;
#N canvas 209 258 1046 651 decrease 0;
#X obj 63 61 inlet R;
#X obj 138 61 inlet G;
#X obj 208 61 inlet B;
#X obj 312 60 inlet;
#X obj 67 363 t b f;
#X obj 104 389 + 1;
#X floatatom 104 465 5 0 0 0 - - -;
#X obj 312 90 tgl 15 0 empty empty empty 17 7 0 10 -262144 -1 -1 1
1;
#X obj 231 366 t b f;
#X obj 268 392 + 1;
#X floatatom 268 468 5 0 0 0 - - -;
#X obj 399 356 t b f;
#X obj 436 382 + 1;
#X floatatom 436 458 5 0 0 0 - - -;
#X obj 58 112 s rIn;
#X obj 133 112 s gIn;
#X obj 203 112 s bIn;
#X obj 67 387 f;
#X obj 231 390 f;
#X obj 399 380 f;
#X obj 158 312 r rIn;
#X obj 329 313 r gIn;
#X obj 485 289 r bIn;
#X obj 64 88 bng 15 250 50 0 empty empty empty 17 7 0 10 -262144 -258113
-1;
#X obj 141 88 bng 15 250 50 0 empty empty empty 17 7 0 10 -262144 -4034
-1;
#X obj 214 89 bng 15 250 50 0 empty empty empty 17 7 0 10 -262144 -4160
-1;
#X obj 104 488 outlet;
#X obj 268 491 outlet;
#X obj 436 481 outlet;
#X msg 121 335 0.3;
#X msg 285 338 0.3;
#X msg 451 326 0.3;
#X obj 312 110 s metro;
#X obj 253 204 r metro;
#X obj 104 413 moses 0.1;
#X obj 268 416 moses 0.1;
#X obj 436 406 moses 0.1;
#X text 45 284 red decrease;
#X text 253 290 green decrease;
#X text 485 266 blue decrease;
#X text 316 192 metro determines speed of colour decrease. 1000 = 1
second. if changed \, requires toggle off-on of toggle above;
#X msg 231 327 -0.01;
#X msg 67 324 -0.01;
#X msg 399 317 -0.01;
#X text 408 72 inlets consist of the 'bang' messages sent from the
Python script \, routed here from the main patch to the correct counters
for each colour value here in the subpatch;
#X text 581 324 the "0.3" value is the colour value each bang increases
it by;
#X text 580 382 the "-0.01" value is the value the colours decrease
by \, the rate of which is determined by the speed of the [metro] obect
;
#X obj 268 443 moses 1;
#X obj 104 440 moses 1;
#X obj 436 433 moses 1;
#X obj 253 228 metro 450;
#X connect 0 0 23 0;
#X connect 1 0 24 0;
#X connect 2 0 25 0;
#X connect 3 0 7 0;
#X connect 4 0 17 0;
#X connect 4 1 5 1;
#X connect 5 0 34 0;
#X connect 6 0 26 0;
#X connect 7 0 32 0;
#X connect 8 0 18 0;
#X connect 8 1 9 1;
#X connect 9 0 35 0;
#X connect 10 0 27 0;
#X connect 11 0 19 0;
#X connect 11 1 12 1;
#X connect 12 0 36 0;
#X connect 13 0 28 0;
#X connect 17 0 5 0;
#X connect 18 0 9 0;
#X connect 19 0 12 0;
#X connect 20 0 29 0;
#X connect 21 0 30 0;
#X connect 22 0 31 0;
#X connect 23 0 14 0;
#X connect 24 0 15 0;
#X connect 25 0 16 0;
#X connect 29 0 4 0;
#X connect 30 0 8 0;
#X connect 31 0 11 0;
#X connect 33 0 50 0;
#X connect 34 1 48 0;
#X connect 35 1 47 0;
#X connect 36 1 49 0;
#X connect 41 0 8 0;
#X connect 42 0 4 0;
#X connect 43 0 11 0;
#X connect 47 0 10 0;
#X connect 47 0 18 1;
#X connect 48 0 6 0;
#X connect 48 0 17 1;
#X connect 49 0 13 0;
#X connect 49 0 19 1;
#X connect 50 0 42 0;
#X connect 50 0 41 0;
#X connect 50 0 43 0;
#X restore 590 477 pd decrease;
#X obj 595 445 bng 25 250 50 0 empty empty empty 17 7 0 10 -262144
-258113 -1;
#X obj 629 445 bng 25 250 50 0 empty empty empty 17 7 0 10 -262144
-4034 -1;
#X obj 663 445 bng 25 250 50 0 empty empty empty 17 7 0 10 -262144
-4160 -1;
#X obj 510 459 r loadbang;
#X obj 581 503 s rD;
#X obj 617 503 s gD;
#X obj 652 503 s bD;
#X obj 527 111 colourRGB 0.1 0.1 0.1;
#X msg 34 47 create \, dimen 600 600 \, 1 \, color 0.4 0.4 0.4, f
18;
#X text 688 110 assigns RGB colour values to the cube;
#X text 646 156 rotates the cube (see cubeRot within cubeDebug section)
;
#X text 559 333 colour decrease subpatch;
#X text 22 184 receives bangs from Python script;
#X obj 611 240 cube 0.5;
#X obj 527 239 sphere 1.5;
#X obj 610 192 r loadbang;
#X msg 614 215 draw line;
#X obj 681 402 r oR;
#X obj 717 402 r oG;
#X obj 751 402 r oB;
#X text 549 378 PYTHON;
#X text 709 378 TouchOSC;
#X obj 19 327 cnv 15 400 150 empty empty touchOSCValues_OSC 20 12 0
14 -233017 -4160 0;
#X obj 80 370 mrpeach/udpreceive 9001;
#X obj 77 398 mrpeach/unpackOSC;
#X obj 34 424 print;
#X obj 78 423 mrpeach/routeOSC /OSC/RED /OSC/GREEN /OSC/BLUE;
#X obj 86 445 s oR;
#X obj 178 445 s oG;
#X obj 286 446 s oB;
#X text 273 97 sub patch to render;
#X text 273 114 light within the Gem window;
#X connect 1 0 2 0;
#X connect 1 1 3 0;
#X connect 1 2 4 0;
#X connect 5 0 1 0;
#X connect 7 0 20 0;
#X connect 11 0 12 0;
#X connect 12 0 8 0;
#X connect 12 0 10 0;
#X connect 12 0 9 0;
#X connect 14 0 21 0;
#X connect 20 0 17 0;
#X connect 20 0 18 0;
#X connect 20 0 19 0;
#X connect 22 0 21 0;
#X connect 23 0 24 0;
#X connect 23 0 22 0;
#X connect 25 0 28 0;
#X connect 26 0 27 0;
#X connect 26 0 29 0;
#X connect 27 0 26 1;
#X connect 28 0 26 0;
#X connect 31 0 25 0;
#X connect 34 0 54 1;
#X connect 35 0 54 2;
#X connect 36 0 54 3;
#X connect 37 0 54 0;
#X connect 38 0 60 0;
#X connect 38 0 61 0;
#X connect 39 0 38 1;
#X connect 39 0 38 2;
#X connect 40 0 47 0;
#X connect 41 0 48 0;
#X connect 42 0 49 0;
#X connect 43 0 34 0;
#X connect 44 0 35 0;
#X connect 45 0 36 0;
#X connect 46 0 51 0;
#X connect 46 1 52 0;
#X connect 46 2 53 0;
#X connect 47 0 46 0;
#X connect 48 0 46 1;
#X connect 49 0 46 2;
#X connect 50 0 46 3;
#X connect 54 0 38 0;
#X connect 55 0 21 0;
#X connect 62 0 63 0;
#X connect 63 0 61 0;
#X connect 64 0 47 0;
#X connect 65 0 48 0;
#X connect 66 0 49 0;
#X connect 70 0 71 0;
#X connect 71 0 72 0;
#X connect 71 0 73 0;
#X connect 73 0 74 0;
#X connect 73 1 75 0;
#X connect 73 2 76 0;
